# Blender 4.4.0
# www.blender.org
mtllib SciFiWall2.mtl
o Wall
v -2.000000 0.000000 -1.950000
v -2.000000 2.900000 -1.950000
v 0.382683 3.923880 -2.000000
v -2.000000 6.000000 -1.950000
v -2.000000 3.100000 -1.950000
v 0.382683 3.923880 -1.950000
v -2.000000 0.000000 -2.050000
v -2.000000 2.900000 -2.000000
v 0.923880 3.382684 -2.000000
v -2.000000 6.000000 -2.050000
v -2.000000 3.100000 -2.000000
v 0.923880 3.382684 -1.950000
v 2.000000 2.900000 -1.950000
v 2.000000 0.000000 -1.950000
v 0.923880 2.617316 -2.000000
v 2.000000 6.000000 -1.950000
v 2.000000 3.100000 -1.950000
v 0.923880 2.617316 -1.950000
v 2.000000 0.000000 -2.050000
v 2.000000 2.900000 -2.000000
v 0.382683 2.076120 -2.000000
v 2.000000 6.000000 -2.050000
v 2.000000 3.100000 -2.000000
v 0.382683 2.076120 -1.950000
v -0.382683 2.076120 -2.000000
v -0.382683 2.076120 -1.950000
v -0.923880 2.617316 -2.000000
v -0.923880 2.617316 -1.950000
v -0.923880 3.382684 -2.000000
v -0.923880 3.382684 -1.950000
v -0.382683 3.923880 -2.000000
v -0.382683 3.923880 -1.950000
v 0.041421 2.900000 -2.000000
v -0.806788 2.900000 -2.000000
v -0.923880 2.900000 -2.000000
v 0.923880 2.900000 -2.000000
v 0.723945 2.900000 -2.000000
v -0.923880 2.900000 -1.950000
v 0.923880 2.900000 -1.950000
v -0.923880 3.100000 -2.000000
v 0.923880 3.100000 -2.000000
v 0.806788 3.100000 -2.000000
v -0.041421 3.100000 -2.000000
v -0.723945 3.100000 -2.000000
v -0.923880 3.100000 -1.950000
v 0.923880 3.100000 -1.950000
vn -1.0000 -0.0000 -0.0000
vn -0.0000 -0.0000 -1.0000
vn 1.0000 -0.0000 -0.0000
vn -0.0000 -0.0000 1.0000
vn -0.0000 -1.0000 -0.0000
vn -0.0000 1.0000 -0.0000
vn -0.7071 -0.7071 -0.0000
vn -0.7071 0.7071 -0.0000
vn 0.7071 0.7071 -0.0000
vn 0.7071 -0.7071 -0.0000
vt 0.625000 0.000000
vt 0.625000 0.250000
vt 0.375000 0.250000
vt 0.375000 0.000000
vt 0.495833 0.000000
vt 0.495833 0.125000
vt 0.504167 0.125000
vt 0.504167 0.000000
vt 0.625000 0.500000
vt 0.375000 0.500000
vt 0.495833 0.750000
vt 0.375000 0.750000
vt 0.625000 0.750000
vt 0.504167 0.750000
vt 0.504167 0.625000
vt 0.495833 0.625000
vt 0.515945 0.817258
vt 0.504167 0.817258
vt 0.625000 1.000000
vt 0.504167 1.000000
vt 0.504167 0.932742
vt 0.515945 0.932742
vt 0.538495 0.898918
vt 0.538495 0.851082
vt 0.484055 0.932742
vt 0.495833 0.932742
vt 0.495833 1.000000
vt 0.375000 1.000000
vt 0.495833 0.750000
vt 0.495833 0.817258
vt 0.484055 0.817258
vt 0.461505 0.851082
vt 0.461505 0.898918
vt 0.125000 0.500000
vt 0.125000 0.750000
vt 0.875000 0.500000
vt 0.875000 0.750000
vt 0.375000 0.317258
vt 0.625000 0.317258
vt 0.625000 0.432742
vt 0.375000 0.432742
vt 0.375000 0.324576
vt 0.375000 0.377589
vt 0.625000 0.372411
vt 0.625000 0.329753
vt 0.625000 0.425424
vt 0.375000 0.420247
vt 0.192258 0.750000
vt 0.192258 0.500000
vt 0.307742 0.500000
vt 0.307742 0.750000
vt 0.807742 0.500000
vt 0.807742 0.750000
vt 0.692258 0.750000
vt 0.692258 0.500000
vt 1.000000 0.500000
vt 0.875000 1.000000
vt 1.000000 1.000000
vt 0.828832 1.000000
vt 0.828832 0.500000
vt 0.750000 0.500000
vt 0.750000 1.000000
vt 0.796168 1.000000
vt 0.796168 0.500000
vt 0.500000 1.000000
vt 0.500000 0.500000
vt 0.328832 1.000000
vt 0.328832 0.500000
vt 0.296168 0.500000
vt 0.250000 0.500000
vt 0.250000 1.000000
vt 0.296168 1.000000
vt 0.125000 1.000000
vt 0.000000 0.500000
vt 0.125000 0.538060
vt 0.919706 0.419706
vt 0.750000 0.490000
vt 0.580294 0.419706
vt 0.580294 0.080294
vt 0.642989 0.054326
vt 0.655963 0.451048
vt 0.882989 0.434914
vt 0.857011 0.445674
vt 0.674332 0.458657
vt 0.617011 0.065086
s 0
usemtl Ground
f 4/1/1 10/2/1 7/3/1 1/4/1 2/5/1 8/6/1 11/7/1 5/8/1
f 7/3/2 10/2/2 22/9/2 19/10/2
f 13/11/3 14/12/3 19/10/3 22/9/3 16/13/3 17/14/3 23/15/3 20/16/3
f 12/17/4 46/18/4 17/14/4 16/13/4 4/19/4 5/20/4 45/21/4 30/22/4 32/23/4 6/24/4
f 28/25/4 38/26/4 2/27/4 1/28/4 14/12/4 13/29/4 39/30/4 18/31/4 24/32/4 26/33/4
f 7/34/5 19/10/5 14/12/5 1/35/5
f 22/9/6 10/36/6 4/37/6 16/13/6
f 8/3/4 35/38/4 40/39/4 11/2/4
f 23/9/4 41/40/4 36/41/4 20/10/4
f 34/42/4 33/43/4 43/44/4 44/45/4
f 41/40/4 42/46/4 37/47/4 36/41/4
f 42/46/4 43/44/4 33/43/4 37/47/4
f 35/38/4 34/42/4 44/45/4 40/39/4
f 2/35/6 38/48/6 35/49/6 8/34/6
f 13/12/6 20/10/6 36/50/6 39/51/6
f 5/37/5 11/36/5 40/52/5 45/53/5
f 17/13/5 46/54/5 41/55/5 23/9/5
f 3/56/7 9/36/7 12/57/7 6/58/7
f 46/59/1 12/57/1 9/36/1 41/60/1
f 15/61/1 18/62/1 39/63/1 36/64/1
f 18/62/8 15/61/8 21/9/8 24/19/8
f 26/65/6 24/19/6 21/9/6 25/66/6
f 28/28/9 26/65/9 25/66/9 27/10/9
f 38/67/3 28/28/3 27/10/3 35/68/3
f 40/69/3 29/70/3 30/71/3 45/72/3
f 29/70/10 31/34/10 32/73/10 30/71/10
f 31/34/5 3/74/5 6/75/5 32/73/5
f 41/76/4 9/76/4 3/77/4 31/78/4 29/79/4 40/79/4 44/80/4 43/81/4 42/82/4
f 35/79/4 27/79/4 25/78/4 21/77/4 15/76/4 36/76/4 37/83/4 33/84/4 34/85/4
o Wall_Panel
v -2.000000 5.000000 -1.900000
v -2.000000 6.000000 -1.900000
v -2.000000 5.000000 -1.950000
v -2.000000 6.000000 -1.950000
v 2.000000 5.000000 -1.900000
v 2.000000 6.000000 -1.900000
v 2.000000 5.000000 -1.950000
v 2.000000 6.000000 -1.950000
vn -1.0000 -0.0000 -0.0000
vn -0.0000 -0.0000 -1.0000
vn 1.0000 -0.0000 -0.0000
vn -0.0000 -0.0000 1.0000
vn -0.0000 -1.0000 -0.0000
vn -0.0000 1.0000 -0.0000
vt 0.375000 0.000000
vt 0.625000 0.000000
vt 0.625000 0.250000
vt 0.375000 0.250000
vt 0.625000 0.500000
vt 0.375000 0.500000
vt 0.625000 0.750000
vt 0.375000 0.750000
vt 0.625000 1.000000
vt 0.375000 1.000000
vt 0.125000 0.500000
vt 0.125000 0.750000
vt 0.875000 0.500000
vt 0.875000 0.750000
s 0
usemtl Ground2
f 47/86/11 48/87/11 50/88/11 49/89/11
f 49/89/12 50/88/12 54/90/12 53/91/12
f 53/91/13 54/90/13 52/92/13 51/93/13
f 51/93/14 52/92/14 48/94/14 47/95/14
f 49/96/15 53/91/15 51/93/15 47/97/15
f 54/90/16 50/98/16 48/99/16 52/92/16
o Wall_Panel2
v -2.000000 0.000000 -1.900000
v -2.000000 1.000000 -1.900000
v -2.000000 0.000000 -1.950000
v -2.000000 1.000000 -1.950000
v 2.000000 0.000000 -1.900000
v 2.000000 1.000000 -1.900000
v 2.000000 0.000000 -1.950000
v 2.000000 1.000000 -1.950000
vn -1.0000 -0.0000 -0.0000
vn -0.0000 -0.0000 -1.0000
vn 1.0000 -0.0000 -0.0000
vn -0.0000 -0.0000 1.0000
vn -0.0000 -1.0000 -0.0000
vn -0.0000 1.0000 -0.0000
vt 0.375000 0.000000
vt 0.625000 0.000000
vt 0.625000 0.250000
vt 0.375000 0.250000
vt 0.625000 0.500000
vt 0.375000 0.500000
vt 0.625000 0.750000
vt 0.375000 0.750000
vt 0.625000 1.000000
vt 0.375000 1.000000
vt 0.125000 0.500000
vt 0.125000 0.750000
vt 0.875000 0.500000
vt 0.875000 0.750000
s 0
usemtl Ground2
f 55/100/17 56/101/17 58/102/17 57/103/17
f 57/103/18 58/102/18 62/104/18 61/105/18
f 61/105/19 62/104/19 60/106/19 59/107/19
f 59/107/20 60/106/20 56/108/20 55/109/20
f 57/110/21 61/105/21 59/107/21 55/111/21
f 62/104/22 58/112/22 56/113/22 60/106/22
