# Blender 4.4.0
# www.blender.org
mtllib SciFiWall5.mtl
o Wall
v 2.050000 0.000000 2.000000
v 2.000000 2.900000 2.000000
v 1.950000 3.923880 -0.382683
v 2.050000 6.000000 2.000000
v 2.000000 3.100000 2.000000
v 2.000000 3.923880 -0.382683
v 1.950000 0.000000 2.000000
v 1.950000 2.900000 2.000000
v 1.950000 3.382684 -0.923880
v 1.950000 6.000000 2.000000
v 1.950000 3.100000 2.000000
v 2.000000 3.382684 -0.923880
v 2.000000 2.900000 -1.950000
v 2.000432 0.000000 0.100000
v 1.950000 2.617316 -0.923880
v 2.050000 0.000000 -2.000000
v 2.050000 6.000000 -2.000000
v 2.000000 3.100000 -1.950000
v 2.000000 2.617316 -0.923880
v 2.000432 0.050000 0.100000
v 1.950000 2.900000 -2.000000
v 1.950000 0.000000 -2.000000
v 2.000000 2.900000 -2.000000
v 1.950000 2.076120 -0.382683
v 2.000432 0.000000 -0.100000
v 2.000000 2.076120 -0.382683
v 1.950000 6.000000 -2.000000
v 1.950000 3.100000 -2.000000
v 2.000000 3.100000 -2.000000
v 2.000432 0.050000 -0.100000
v 1.950000 2.076120 0.382683
v 2.000000 2.076120 0.382683
v 1.950000 2.617316 0.923880
v 2.000000 2.617316 0.923880
v 1.950000 3.382684 0.923880
v 2.000000 3.382684 0.923880
v 1.950000 3.923880 0.382683
v 2.000000 3.923880 0.382683
v 1.950000 0.050000 -0.100000
v 1.950000 0.000000 -0.100000
v 1.950000 0.050000 0.100000
v 1.950000 0.000000 0.100000
v 2.000000 3.100000 -0.923880
v 2.000000 2.900000 -0.923880
v 1.950000 2.900000 -0.923880
v 1.950000 3.100000 -0.923880
v 2.000000 2.900000 0.923880
v 2.000000 3.100000 0.923880
v 1.950000 2.900000 0.923880
v 1.950000 3.100000 0.923880
v 1.950000 2.900000 -1.950000
v 1.950000 3.100000 -1.999375
v 1.950000 3.100000 -1.950000
v 2.000000 3.100000 0.806788
v 2.000000 3.100000 0.241421
v 2.000000 3.100000 -0.723945
v 1.950008 3.100000 -1.999375
v 2.000000 2.900000 0.723945
v 2.000000 2.900000 -0.241421
v 2.000000 2.900000 -0.806788
v 1.999375 2.900000 -1.950000
v 1.999375 2.900000 -1.950008
vn -0.0000 -0.0000 1.0000
vn -1.0000 -0.0000 -0.0000
vn -0.0000 -0.0000 -1.0000
vn 1.0000 -0.0000 -0.0000
vn -0.0000 -1.0000 -0.0000
vn -0.0000 1.0000 -0.0000
vn -0.0000 -0.7071 0.7071
vn -0.0000 0.7071 0.7071
vn -0.0000 0.7071 -0.7071
vn -0.0000 -0.7071 -0.7071
vt 0.375000 0.250000
vt 0.375000 0.000000
vt 0.625000 0.000000
vt 0.625000 0.250000
vt 0.504167 0.250000
vt 0.504167 0.125000
vt 0.495833 0.125000
vt 0.495833 0.250000
vt 0.495833 0.250000
vt 0.495833 0.317258
vt 0.484055 0.317258
vt 0.461505 0.351082
vt 0.461505 0.398918
vt 0.484055 0.432742
vt 0.495833 0.432742
vt 0.495833 0.496875
vt 0.495833 0.500000
vt 0.375000 0.500000
vt 0.375000 0.381250
vt 0.377083 0.381250
vt 0.377083 0.368750
vt 0.375000 0.368750
vt 0.504167 0.496875
vt 0.504167 0.432742
vt 0.515945 0.432742
vt 0.538495 0.398918
vt 0.538495 0.351082
vt 0.515945 0.317258
vt 0.504167 0.317258
vt 0.625000 0.500000
vt 0.504167 0.500000
vt 0.504167 0.499961
vt 0.625000 0.750000
vt 0.375000 0.750000
vt 0.495833 0.500000
vt 0.495833 0.625000
vt 0.504167 0.625000
vt 0.625000 1.000000
vt 0.375000 1.000000
vt 0.256250 0.500000
vt 0.125000 0.750000
vt 0.125000 0.500000
vt 0.243750 0.500000
vt 0.243750 0.626079
vt 0.256250 0.626079
vt 0.875000 0.500000
vt 0.875000 0.750000
vt 0.636218 0.750000
vt 0.636218 0.500000
vt 0.371875 0.500000
vt 0.371875 0.750000
vt 0.374961 0.750000
vt 0.628125 0.750000
vt 0.628125 0.503125
vt 0.628124 0.503124
vt 0.628125 0.500000
vt 0.875000 1.000000
vt 1.000000 1.000000
vt 1.000000 0.500000
vt 0.828832 1.000000
vt 0.828832 0.500000
vt 0.750000 0.500000
vt 0.750000 1.000000
vt 0.796168 1.000000
vt 0.796168 0.500000
vt 0.500000 1.000000
vt 0.500000 0.500000
vt 0.328832 1.000000
vt 0.328832 0.500000
vt 0.296168 0.500000
vt 0.250000 0.500000
vt 0.250000 1.000000
vt 0.296168 1.000000
vt 0.490000 0.250000
vt 0.250000 0.490000
vt 0.080294 0.419706
vt 0.010000 0.250000
vt 0.035969 0.312694
vt 0.218678 0.477026
vt 0.382989 0.434914
vt 0.357011 0.445674
vt 0.111617 0.432680
vt 0.025209 0.286717
vt 0.125000 1.000000
vt 0.000000 0.500000
vt 0.125000 0.538060
vt 0.625000 0.932742
vt 0.375000 0.932742
vt 0.375000 0.753125
vt 0.375000 0.817258
vt 0.625000 0.817258
vt 0.625000 0.753125
vt 0.192258 0.750000
vt 0.192258 0.500000
vt 0.307742 0.500000
vt 0.307742 0.750000
vt 0.371875 0.746875
vt 0.807742 0.500000
vt 0.807742 0.750000
vt 0.692258 0.750000
vt 0.692258 0.500000
s 0
usemtl Ground
f 7/1/1 1/2/1 4/3/1 10/4/1 11/5/1 5/6/1 2/7/1 8/8/1
f 8/9/2 49/10/2 33/11/2 31/12/2 24/13/2 15/14/2 45/15/2 51/16/2 21/17/2 22/18/2 40/19/2 39/20/2 41/21/2 42/22/2 7/1/2
f 53/23/2 46/24/2 9/25/2 3/26/2 37/27/2 35/28/2 50/29/2 11/5/2 10/4/2 27/30/2 28/31/2 52/32/2
f 28/31/3 27/30/3 17/33/3 16/34/3 22/18/3 21/35/3 23/36/3 29/37/3
f 16/34/4 17/33/4 4/38/4 1/39/4
f 40/40/5 22/18/5 16/34/5 1/41/5 7/42/5 42/43/5 14/44/5 25/45/5
f 27/30/6 10/46/6 4/47/6 17/33/6
f 25/18/1 30/4/1 39/4/1 40/18/1
f 20/30/2 30/30/2 25/34/2 14/34/2
f 42/39/3 41/33/3 20/33/3 14/39/3
f 30/30/5 20/33/5 41/48/5 39/49/5
f 18/30/2 29/30/2 23/34/2 13/34/2
f 13/34/6 23/18/6 21/50/6 51/51/6 61/52/6 62/52/6
f 61/52/6 13/34/6 62/52/6
f 29/30/5 18/33/5 53/53/5 52/54/5 57/55/5 28/56/5
f 28/56/5 57/55/5 52/54/5
f 12/57/7 6/58/7 3/59/7 9/46/7
f 43/60/1 12/57/1 9/46/1 46/61/1
f 15/62/1 19/63/1 44/64/1 45/65/1
f 26/38/8 19/63/8 15/62/8 24/30/8
f 32/66/6 26/38/6 24/30/6 31/67/6
f 33/18/9 34/39/9 32/66/9 31/67/9
f 47/68/3 34/39/3 33/18/3 49/69/3
f 50/70/3 35/71/3 36/72/3 48/73/3
f 19/74/2 26/75/2 32/76/2 34/77/2 47/77/2 58/78/2 59/79/2 60/80/2 44/74/2
f 36/77/2 38/76/2 6/75/2 12/74/2 43/74/2 56/81/2 55/82/2 54/83/2 48/77/2
f 44/74/2 60/80/2 56/81/2 43/74/2
f 48/77/2 54/83/2 58/78/2 47/77/2
f 59/79/2 55/82/2 56/81/2 60/80/2
f 55/82/2 59/79/2 58/78/2 54/83/2
f 35/71/10 37/42/10 38/84/10 36/72/10
f 37/42/5 3/85/5 6/86/5 38/84/5
f 5/38/2 48/87/2 47/88/2 2/39/2
f 13/89/2 44/90/2 43/91/2 18/92/2
f 8/42/6 2/41/6 47/93/6 49/94/6
f 45/95/6 44/96/6 13/51/6 61/97/6 51/50/6
f 11/46/5 50/98/5 48/99/5 5/47/5
f 18/53/5 43/100/5 46/101/5 53/56/5
o Wall_Panel
v -2.000000 5.000000 -1.900000
v -2.000000 6.000000 -1.900000
v -2.000000 5.000000 -1.950000
v -2.000000 6.000000 -1.950000
v 2.000000 5.000000 -1.900000
v 2.000000 6.000000 -1.900000
v 2.000000 5.000000 -1.950000
v 2.000000 6.000000 -1.950000
vn -1.0000 -0.0000 -0.0000
vn -0.0000 -0.0000 -1.0000
vn 1.0000 -0.0000 -0.0000
vn -0.0000 -0.0000 1.0000
vn -0.0000 -1.0000 -0.0000
vn -0.0000 1.0000 -0.0000
vt 0.375000 0.000000
vt 0.625000 0.000000
vt 0.625000 0.250000
vt 0.375000 0.250000
vt 0.625000 0.500000
vt 0.375000 0.500000
vt 0.625000 0.750000
vt 0.375000 0.750000
vt 0.625000 1.000000
vt 0.375000 1.000000
vt 0.125000 0.500000
vt 0.125000 0.750000
vt 0.875000 0.500000
vt 0.875000 0.750000
s 0
usemtl Ground2
f 63/102/11 64/103/11 66/104/11 65/105/11
f 65/105/12 66/104/12 70/106/12 69/107/12
f 69/107/13 70/106/13 68/108/13 67/109/13
f 67/109/14 68/108/14 64/110/14 63/111/14
f 65/112/15 69/107/15 67/109/15 63/113/15
f 70/106/16 66/114/16 64/115/16 68/108/16
o Wall.001
v -2.000000 0.000000 -1.950000
v -2.000000 2.900000 -1.950000
v 0.382683 3.923880 -2.000000
v -2.000000 6.000000 -1.950000
v -2.000000 3.100000 -1.950000
v 0.382683 3.923880 -1.950000
v -2.000000 0.000000 -2.050000
v -2.000000 2.900000 -2.000000
v 0.923880 3.382684 -2.000000
v -2.000000 6.000000 -2.050000
v -2.000000 3.100000 -2.000000
v 0.923880 3.382684 -1.950000
v 0.100000 0.000000 -2.000432
v 2.000000 0.000000 -1.950000
v 2.000000 2.900000 -1.950000
v 0.923880 2.617316 -2.000000
v 2.000000 3.100000 -1.950000
v 2.000000 6.000000 -1.950000
v 0.923880 2.617316 -1.950000
v 0.100000 0.050000 -2.000432
v 2.000000 2.900000 -2.000000
v 0.382683 2.076120 -2.000000
v 2.000000 0.000000 -2.050000
v 1.950000 2.900000 -2.000000
v -0.100000 0.000000 -2.000432
v 2.000000 3.100000 -2.000000
v 0.382683 2.076120 -1.950000
v 2.000000 6.000000 -2.050000
v 1.950000 3.100000 -2.000000
v -0.100000 0.050000 -2.000432
v -0.382683 2.076120 -2.000000
v -0.382683 2.076120 -1.950000
v -0.923880 2.617316 -2.000000
v -0.923880 2.617316 -1.950000
v -0.923880 3.382684 -2.000000
v -0.923880 3.382684 -1.950000
v -0.382683 3.923880 -2.000000
v -0.382683 3.923880 -1.950000
v -0.100000 0.050000 -1.950000
v -0.100000 0.000000 -1.950000
v 0.100000 0.050000 -1.950000
v 0.100000 0.000000 -1.950000
v 0.923880 2.900000 -1.950000
v 0.923880 3.100000 -1.950000
v 0.923880 2.900000 -2.000000
v 0.923880 3.100000 -2.000000
v -0.923880 2.900000 -1.950000
v -0.923880 3.100000 -1.950000
v -0.923880 2.900000 -2.000000
v -0.923880 3.100000 -2.000000
v -0.723945 3.100000 -2.000000
v 0.806788 3.100000 -2.000000
v -0.041421 3.100000 -2.000000
v 1.950000 3.100000 -1.950000
v 1.950008 3.100000 -1.999375
v 1.950000 3.100000 -1.999375
v 0.041421 2.900000 -2.000000
v -0.806788 2.900000 -2.000000
v 0.723945 2.900000 -2.000000
v 1.950000 2.900000 -1.950000
v 1.999375 2.900000 -1.950000
v 1.999375 2.900000 -1.950008
vn -1.0000 -0.0000 -0.0000
vn -0.0000 -0.0000 -1.0000
vn 1.0000 -0.0000 -0.0000
vn -0.0000 -0.0000 1.0000
vn -0.0000 -1.0000 -0.0000
vn -0.0000 1.0000 -0.0000
vn -0.0004 -1.0000 -0.0000
vn -0.7071 -0.7071 -0.0000
vn -0.7071 0.7071 -0.0000
vn 0.7071 0.7071 -0.0000
vn 0.7071 -0.7071 -0.0000
vt 0.625000 0.000000
vt 0.625000 0.250000
vt 0.375000 0.250000
vt 0.375000 0.000000
vt 0.495833 0.000000
vt 0.495833 0.125000
vt 0.504167 0.125000
vt 0.504167 0.000000
vt 0.625000 0.500000
vt 0.375000 0.500000
vt 0.495833 0.750000
vt 0.375000 0.750000
vt 0.625000 0.750000
vt 0.504167 0.750000
vt 0.504167 0.625000
vt 0.495833 0.625000
vt 0.625000 1.000000
vt 0.504167 1.000000
vt 0.504167 0.932742
vt 0.515945 0.932742
vt 0.538495 0.898918
vt 0.538495 0.851082
vt 0.515945 0.817258
vt 0.504167 0.817258
vt 0.504167 0.753125
vt 0.495833 0.817258
vt 0.484055 0.817258
vt 0.461505 0.851082
vt 0.461505 0.898918
vt 0.484055 0.932742
vt 0.495833 0.932742
vt 0.495833 1.000000
vt 0.375000 1.000000
vt 0.375000 0.881250
vt 0.377083 0.881250
vt 0.377083 0.868750
vt 0.375000 0.868750
vt 0.495833 0.750000
vt 0.495833 0.750039
vt 0.495833 0.753125
vt 0.243750 0.750000
vt 0.125000 0.750000
vt 0.125000 0.500000
vt 0.256250 0.750000
vt 0.256250 0.623921
vt 0.243750 0.623921
vt 0.875000 0.500000
vt 0.875000 0.750000
vt 0.636218 0.750000
vt 0.636218 0.500000
vt 0.375000 0.317258
vt 0.625000 0.317258
vt 0.625000 0.496875
vt 0.625000 0.432742
vt 0.375000 0.432742
vt 0.375000 0.496875
vt 0.625000 0.329753
vt 0.375000 0.324576
vt 0.625000 0.425424
vt 0.625000 0.372411
vt 0.375000 0.377589
vt 0.375000 0.420247
vt 0.371875 0.500000
vt 0.307742 0.500000
vt 0.307742 0.750000
vt 0.371875 0.750000
vt 0.192258 0.750000
vt 0.192258 0.500000
vt 0.374961 0.750000
vt 0.374961 0.749961
vt 0.807742 0.750000
vt 0.807742 0.500000
vt 0.692258 0.500000
vt 0.628125 0.500000
vt 0.628125 0.503125
vt 0.628125 0.750000
vt 0.692258 0.750000
vt 0.628124 0.503124
vt 1.000000 0.500000
vt 0.875000 1.000000
vt 1.000000 1.000000
vt 0.828832 1.000000
vt 0.828832 0.500000
vt 0.750000 0.500000
vt 0.750000 1.000000
vt 0.796168 1.000000
vt 0.796168 0.500000
vt 0.500000 1.000000
vt 0.500000 0.500000
vt 0.328832 1.000000
vt 0.328832 0.500000
vt 0.296168 0.500000
vt 0.250000 0.500000
vt 0.250000 1.000000
vt 0.296168 1.000000
vt 0.125000 1.000000
vt 0.000000 0.500000
vt 0.125000 0.538060
vt 0.882989 0.434914
vt 0.919706 0.419706
vt 0.750000 0.490000
vt 0.580294 0.419706
vt 0.580294 0.080294
vt 0.642989 0.054326
vt 0.655963 0.451048
vt 0.857011 0.445674
vt 0.674332 0.458657
vt 0.617011 0.065086
s 0
usemtl Ground
f 74/116/17 80/117/17 77/118/17 71/119/17 72/120/17 78/121/17 81/122/17 75/123/17
f 77/118/18 80/117/18 98/124/18 93/125/18
f 85/126/19 84/127/19 93/125/19 98/124/19 88/128/19 87/129/19 96/130/19 91/131/19
f 87/129/20 88/128/20 74/132/20 75/133/20 118/134/20 106/135/20 108/136/20 76/137/20 82/138/20 114/139/20 124/140/20
f 113/141/20 89/142/20 97/143/20 102/144/20 104/145/20 117/146/20 72/147/20 71/148/20 110/149/20 109/150/20 111/151/20 112/152/20 84/127/20 85/153/20 131/154/20 130/155/20
f 110/156/21 71/157/21 77/158/21 93/125/21 84/127/21 112/159/21 83/160/21 95/161/21
f 98/124/22 80/162/22 74/163/22 88/128/22
f 110/125/19 95/125/19 100/117/19 109/117/19
f 83/127/20 90/124/20 100/124/20 95/127/20
f 112/148/17 111/128/17 90/128/17 83/148/17
f 100/124/21 90/128/21 111/164/21 109/165/21
f 78/118/20 119/166/20 120/167/20 81/117/20
f 99/168/20 116/169/20 115/170/20 94/171/20
f 121/172/20 120/167/20 119/166/20 128/173/20
f 122/174/20 123/175/20 127/176/20 129/177/20
f 96/124/20 99/168/20 94/171/20 91/125/20
f 115/170/20 116/169/20 122/174/20 129/177/20
f 128/173/20 127/176/20 123/175/20 121/172/20
f 94/178/22 115/179/22 113/180/22 130/181/22
f 72/157/22 117/182/22 119/183/22 78/158/22
f 85/127/22 91/125/22 94/178/22 130/181/22 131/184/22 132/185/22
f 131/184/22 85/127/22 132/185/22
f 118/186/21 75/163/21 81/162/21 120/187/21
f 116/188/21 99/189/21 126/190/21 124/191/21 114/192/21
f 125/193/21 99/189/21 96/124/21 87/128/21 124/191/21 126/190/21
f 99/189/23 125/193/23 126/190/23
f 73/194/24 79/162/24 82/195/24 76/196/24
f 114/197/17 82/195/17 79/162/17 116/198/17
f 86/199/17 89/200/17 113/201/17 115/202/17
f 89/200/25 86/199/25 92/124/25 97/132/25
f 102/203/22 97/132/22 92/124/22 101/204/22
f 104/148/26 102/203/26 101/204/26 103/125/26
f 117/205/19 104/148/19 103/125/19 119/206/19
f 120/207/19 105/208/19 106/209/19 118/210/19
f 105/208/27 107/158/27 108/211/27 106/209/27
f 107/158/21 73/212/21 76/213/21 108/211/21
f 122/214/20 116/215/20 79/215/20 73/216/20 107/217/20 105/218/20 120/218/20 121/219/20 123/220/20
f 119/218/20 103/218/20 101/217/20 92/216/20 86/215/20 115/215/20 129/221/20 127/222/20 128/223/20
o Wall_Panel.001
v 1.950000 5.000000 2.000000
v 1.950000 6.000000 2.000000
v 1.900000 5.000000 2.000000
v 1.900000 6.000000 2.000000
v 1.950000 5.000000 -2.000000
v 1.950000 6.000000 -2.000000
v 1.900000 5.000000 -2.000000
v 1.900000 6.000000 -2.000000
vn -0.0000 -0.0000 1.0000
vn -1.0000 -0.0000 -0.0000
vn -0.0000 -0.0000 -1.0000
vn 1.0000 -0.0000 -0.0000
vn -0.0000 -1.0000 -0.0000
vn -0.0000 1.0000 -0.0000
vt 0.375000 0.000000
vt 0.625000 0.000000
vt 0.625000 0.250000
vt 0.375000 0.250000
vt 0.625000 0.500000
vt 0.375000 0.500000
vt 0.625000 0.750000
vt 0.375000 0.750000
vt 0.625000 1.000000
vt 0.375000 1.000000
vt 0.125000 0.500000
vt 0.125000 0.750000
vt 0.875000 0.500000
vt 0.875000 0.750000
s 0
usemtl Ground2
f 133/224/28 134/225/28 136/226/28 135/227/28
f 135/227/29 136/226/29 140/228/29 139/229/29
f 139/229/30 140/228/30 138/230/30 137/231/30
f 137/231/31 138/230/31 134/232/31 133/233/31
f 135/234/32 139/229/32 137/231/32 133/235/32
f 140/228/33 136/236/33 134/237/33 138/230/33
o Wall_Panel.002
v -2.000000 0.000000 -1.900000
v -2.000000 1.000000 -1.900000
v -2.000000 0.000000 -1.950000
v -2.000000 1.000000 -1.950000
v 2.000000 0.000000 -1.900000
v 2.000000 1.000000 -1.900000
v 2.000000 0.000000 -1.950000
v 2.000000 1.000000 -1.950000
vn -1.0000 -0.0000 -0.0000
vn -0.0000 -0.0000 -1.0000
vn 1.0000 -0.0000 -0.0000
vn -0.0000 -0.0000 1.0000
vn -0.0000 -1.0000 -0.0000
vn -0.0000 1.0000 -0.0000
vt 0.375000 0.000000
vt 0.625000 0.000000
vt 0.625000 0.250000
vt 0.375000 0.250000
vt 0.625000 0.500000
vt 0.375000 0.500000
vt 0.625000 0.750000
vt 0.375000 0.750000
vt 0.625000 1.000000
vt 0.375000 1.000000
vt 0.125000 0.500000
vt 0.125000 0.750000
vt 0.875000 0.500000
vt 0.875000 0.750000
s 0
usemtl Ground2
f 141/238/34 142/239/34 144/240/34 143/241/34
f 143/241/35 144/240/35 148/242/35 147/243/35
f 147/243/36 148/242/36 146/244/36 145/245/36
f 145/245/37 146/244/37 142/246/37 141/247/37
f 143/248/38 147/243/38 145/245/38 141/249/38
f 148/242/39 144/250/39 142/251/39 146/244/39
o Wall_Panel.003
v 1.950000 0.000000 2.000000
v 1.950000 1.000000 2.000000
v 1.900000 0.000000 2.000000
v 1.900000 1.000000 2.000000
v 1.950000 0.000000 -2.000000
v 1.950000 1.000000 -2.000000
v 1.900000 0.000000 -2.000000
v 1.900000 1.000000 -2.000000
v 1.900000 0.000000 0.100000
v 1.900000 0.050000 0.100000
v 1.900000 0.050000 -0.100000
v 1.900000 0.000000 -0.100000
v 1.950000 0.000000 0.100000
v 1.950000 0.050000 0.100000
v 1.950000 0.050000 -0.100000
v 1.950000 0.000000 -0.100000
vn -0.0000 -0.0000 1.0000
vn -1.0000 -0.0000 -0.0000
vn -0.0000 -0.0000 -1.0000
vn 1.0000 -0.0000 -0.0000
vn -0.0000 -1.0000 -0.0000
vn -0.0000 1.0000 -0.0000
vt 0.375000 0.000000
vt 0.625000 0.000000
vt 0.625000 0.250000
vt 0.375000 0.250000
vt 0.625000 0.500000
vt 0.375000 0.500000
vt 0.375000 0.381250
vt 0.387500 0.381250
vt 0.387500 0.368750
vt 0.375000 0.368750
vt 0.625000 0.750000
vt 0.375000 0.750000
vt 0.625000 1.000000
vt 0.375000 1.000000
vt 0.375000 0.881250
vt 0.387500 0.881250
vt 0.387500 0.868750
vt 0.375000 0.868750
vt 0.256250 0.500000
vt 0.256250 0.750000
vt 0.243750 0.750000
vt 0.125000 0.750000
vt 0.125000 0.500000
vt 0.243750 0.500000
vt 0.875000 0.500000
vt 0.875000 0.750000
vt 0.647341 0.750000
vt 0.647341 0.500000
vt 0.636218 0.500000
vt 0.636218 0.750000
s 0
usemtl Ground2
f 149/252/40 150/253/40 152/254/40 151/255/40
f 151/255/41 152/254/41 156/256/41 155/257/41 160/258/41 159/259/41 158/260/41 157/261/41
f 155/257/42 156/256/42 154/262/42 153/263/42
f 153/263/43 154/262/43 150/264/43 149/265/43 161/266/43 162/267/43 163/268/43 164/269/43
f 160/270/44 155/257/44 153/263/44 164/271/44
f 161/272/44 149/273/44 151/274/44 157/275/44
f 156/256/45 152/276/45 150/277/45 154/262/45
f 163/254/40 159/254/40 160/257/40 164/257/40
f 157/265/42 158/262/42 162/262/42 161/265/42
f 158/278/44 159/279/44 163/280/44 162/281/44
